<svg xmlns="http://www.w3.org/2000/svg" xmlns:xlink="http://www.w3.org/1999/xlink" width="2000" zoomAndPan="magnify" viewBox="0 0 1500 1499.999933" height="2000" preserveAspectRatio="xMidYMid meet" version="1.0"><defs><g/><clipPath id="ed95c28e26"><path d="M 579 1157 L 596 1157 L 596 1174 L 579 1174 Z M 579 1157 " clip-rule="nonzero"/></clipPath><clipPath id="b7d1970697"><path d="M 586.464844 1094.445312 L 927.386719 1152.011719 L 913.402344 1234.839844 L 572.476562 1177.273438 Z M 586.464844 1094.445312 " clip-rule="nonzero"/></clipPath><clipPath id="b4a866efc7"><path d="M 586.464844 1094.445312 L 927.386719 1152.011719 L 913.402344 1234.839844 L 572.476562 1177.273438 Z M 586.464844 1094.445312 " clip-rule="nonzero"/></clipPath><clipPath id="949b776346"><path d="M 579 1156 L 597 1156 L 597 1174 L 579 1174 Z M 579 1156 " clip-rule="nonzero"/></clipPath><clipPath id="0c46195a00"><path d="M 586.464844 1094.445312 L 927.386719 1152.011719 L 913.402344 1234.839844 L 572.476562 1177.273438 Z M 586.464844 1094.445312 " clip-rule="nonzero"/></clipPath><clipPath id="ce30d9b51a"><path d="M 586.464844 1094.445312 L 927.386719 1152.011719 L 913.402344 1234.839844 L 572.476562 1177.273438 Z M 586.464844 1094.445312 " clip-rule="nonzero"/></clipPath><clipPath id="c16c97a3c8"><path d="M 577 1128 L 924 1128 L 924 1179 L 577 1179 Z M 577 1128 " clip-rule="nonzero"/></clipPath><clipPath id="27c881e0d1"><path d="M 586.464844 1094.445312 L 927.386719 1152.011719 L 913.402344 1234.839844 L 572.476562 1177.273438 Z M 586.464844 1094.445312 " clip-rule="nonzero"/></clipPath><clipPath id="50a761ab0e"><path d="M 586.464844 1094.445312 L 927.386719 1152.011719 L 913.402344 1234.839844 L 572.476562 1177.273438 Z M 586.464844 1094.445312 " clip-rule="nonzero"/></clipPath><clipPath id="6d116c7244"><rect x="0" width="767" y="0" height="316"/></clipPath></defs><rect x="-150" width="1800" fill="#ffffff" y="-149.999993" height="1799.99992" fill-opacity="1"/><rect x="-150" width="1800" fill="#ffffff" y="-149.999993" height="1799.99992" fill-opacity="1"/><path fill="#a8a28a" d="M 747.863281 913.980469 C 729.996094 913.425781 712.128906 912.09375 694.410156 909.664062 C 667.441406 905.597656 642.207031 894.421875 617.136719 884.1875 C 542.074219 851.726562 476.324219 789.429688 456.824219 708.054688 C 439.003906 624.867188 463.679688 527.871094 511.414062 458.359375 C 540.988281 417.296875 582.132812 384.140625 628.253906 363.367188 C 661.988281 349.980469 697.558594 339.847656 733.699219 335.945312 C 752.355469 334.371094 771.070312 335.796875 789.632812 337.824219 C 812.640625 339.953125 836.808594 342.628906 855.40625 357.695312 C 866.605469 365.117188 861.9375 382.648438 848.121094 382.464844 C 841.070312 382.242188 834.886719 378.527344 828.425781 376.128906 C 809.652344 370.6875 789.691406 371.335938 770.328125 369.910156 C 743.035156 367.941406 716.066406 372.699219 690 380.574219 C 671.933594 385.9375 653.695312 391.101562 636.71875 399.425781 C 614.648438 410.277344 594.71875 424.949219 576.351562 441.230469 C 511.425781 500.796875 483.296875 595.128906 490.582031 681.539062 C 498.894531 739.34375 536.148438 790.238281 584.144531 822.234375 C 617.625 843.738281 654.355469 860.519531 692.984375 870.257812 C 718.878906 874.785156 745.398438 876.230469 771.648438 875.246094 C 818.175781 871.308594 862.203125 846.796875 896.851562 816.964844 C 936.675781 782.699219 962.867188 735.234375 981.488281 686.726562 C 997.886719 632.671875 991.703125 572.789062 970.300781 520.980469 C 965.023438 504.816406 956.210938 490.675781 945.195312 477.824219 C 931.777344 457.199219 912.796875 441.902344 894.246094 426.1875 C 889.429688 422.089844 884.449219 418.210938 879.332031 414.492188 C 865.78125 404.953125 872.140625 381.769531 888.488281 380.148438 C 903.3125 378.6875 914.523438 394.4375 925.464844 402.484375 C 932.042969 408.113281 938.933594 413.347656 945.382812 419.136719 C 958.121094 430.496094 968.378906 444.183594 978.417969 457.882812 C 984.199219 465.28125 990.136719 472.417969 994.65625 480.695312 C 1026.582031 544.128906 1038.878906 619.054688 1021.277344 688.464844 C 1004.242188 741.335938 976.023438 791.835938 937.367188 831.9375 C 887.03125 880.945312 819.726562 917.941406 747.863281 913.980469 Z M 689.292969 611.875 C 677.675781 610.308594 669.988281 597.941406 673.890625 586.8125 C 676.089844 572.085938 678.199219 557.308594 680.875 542.625 C 684.832031 526.171875 683.964844 505.871094 696.808594 493.339844 C 703.488281 487.792969 714.027344 488.964844 718.484375 496.652344 C 722.0625 502.222656 720.730469 508.570312 719.78125 514.625 C 717.988281 526.898438 716.886719 539.265625 715.347656 551.578125 C 713.449219 566.238281 712.035156 580.929688 710.667969 595.648438 C 709.546875 605.957031 699.273438 613.25 689.292969 611.875 Z M 809.074219 623.335938 C 787.410156 618.207031 792.65625 600.871094 795.238281 584.40625 C 797.332031 568.574219 799.3125 552.734375 802.566406 537.101562 C 805.359375 525.753906 805.101562 513.121094 811.472656 503.035156 C 820.0625 491.210938 839.945312 495.207031 843.492188 509.332031 C 845.125 515.121094 843.617188 521.214844 842.691406 527.015625 C 840.886719 539.371094 838.210938 551.554688 836.496094 563.921875 C 834.667969 577.921875 833.058594 591.945312 830.902344 605.898438 C 829.953125 616.714844 819.707031 624.867188 809.074219 623.335938 Z M 724.667969 763.003906 C 706.558594 759.898438 690.425781 750.507812 675.417969 740.304688 C 662.761719 732.28125 653.242188 720.457031 644.675781 708.355469 C 636.464844 695.746094 625.800781 674.554688 631.011719 659.570312 C 634.832031 649.625 648.75 645.59375 657.019531 652.542969 C 664.925781 659.386719 666.109375 670.664062 670.960938 679.511719 C 676.101562 688.53125 682.957031 696.636719 690.3125 703.933594 C 716.355469 725.21875 746.625 732.976562 779.070312 722.335938 C 798.535156 714.496094 812.003906 696.894531 823.433594 680.03125 C 833.359375 662.003906 862.390625 671.960938 859.15625 692.367188 C 857.410156 703.355469 835.210938 729.085938 826.246094 736.855469 C 799.789062 762.863281 760.242188 769.9375 724.667969 763.003906 Z M 724.667969 763.003906 " fill-opacity="1" fill-rule="nonzero"/><g clip-path="url(#ed95c28e26)"><g clip-path="url(#b7d1970697)"><g clip-path="url(#b4a866efc7)"><path fill="#a8a28a" d="M 580.054688 1168.503906 C 576.210938 1156.894531 594.175781 1152.824219 595.882812 1164.746094 C 596.839844 1174.105469 583.335938 1177.296875 580.054688 1168.503906 Z M 580.054688 1168.503906 " fill-opacity="1" fill-rule="nonzero"/></g></g></g><g clip-path="url(#949b776346)"><g clip-path="url(#0c46195a00)"><g clip-path="url(#ce30d9b51a)"><path fill="#a8a28a" d="M 580.371094 1170.617188 C 575.027344 1162.203125 586.625 1151.945312 593.859375 1159.625 C 601.667969 1168.675781 587.492188 1179.261719 580.371094 1170.617188 Z M 580.371094 1170.617188 " fill-opacity="1" fill-rule="nonzero"/></g></g></g><g clip-path="url(#c16c97a3c8)"><g clip-path="url(#27c881e0d1)"><g clip-path="url(#50a761ab0e)"><path fill="#a8a28a" d="M 577.152344 1165.328125 C 577.308594 1160.441406 581.246094 1156.183594 586.074219 1155.734375 C 594.246094 1153.960938 602.417969 1152.195312 610.632812 1150.621094 C 641.835938 1144.25 673.601562 1141.261719 705.179688 1137.355469 C 722.679688 1135.480469 740.1875 1133.632812 757.65625 1131.546875 C 766.429688 1130.5 775.195312 1129.402344 783.996094 1128.660156 C 786.144531 1128.484375 788.289062 1128.671875 790.265625 1129.59375 C 802.390625 1135.914062 792.945312 1149.871094 788.546875 1158.363281 C 826.105469 1157.933594 863.679688 1157.28125 901.238281 1158.132812 C 907.628906 1158.851562 915.6875 1156.660156 920.609375 1161.773438 C 924.28125 1165.605469 924.03125 1172.222656 920.058594 1175.753906 C 916.285156 1179.367188 910.859375 1178.257812 906.128906 1178.148438 C 899.523438 1177.933594 892.929688 1177.796875 886.328125 1177.710938 C 859.285156 1177.4375 832.246094 1177.652344 805.207031 1178.023438 C 783.535156 1178.367188 751.117188 1181.980469 770.453125 1150.054688 C 724.140625 1155.660156 677.609375 1159.761719 631.488281 1166.878906 C 618.765625 1169.058594 606.132812 1171.738281 593.511719 1174.429688 C 586.308594 1177.363281 576.988281 1174.214844 577.152344 1165.328125 Z M 577.152344 1165.328125 " fill-opacity="1" fill-rule="nonzero"/></g></g></g><g transform="matrix(1, 0, 0, 1, 367, 883)"><g clip-path="url(#6d116c7244)"><g fill="#ae9279" fill-opacity="1"><g transform="translate(1.196886, 213.380589)"><g><path d="M 34.25 -0.40625 C 31.5 -0.40625 28.539062 -0.300781 25.375 -0.09375 C 22.21875 0.101562 19.160156 -0.101562 16.203125 -0.71875 C 13.242188 -1.34375 10.59375 -2.753906 8.25 -4.953125 C 5.78125 -7.429688 4.269531 -10.390625 3.71875 -13.828125 C 3.164062 -17.265625 3.023438 -20.875 3.296875 -24.65625 C 3.578125 -28.4375 3.785156 -31.84375 3.921875 -34.875 C 4.191406 -40.789062 4.460938 -46.671875 4.734375 -52.515625 C 5.015625 -58.359375 5.296875 -64.238281 5.578125 -70.15625 C 5.847656 -77.03125 6.15625 -83.941406 6.5 -90.890625 C 6.84375 -97.835938 7.082031 -104.75 7.21875 -111.625 C 7.5 -115.476562 7.5 -119.742188 7.21875 -124.421875 C 6.945312 -129.097656 7.5 -133.296875 8.875 -137.015625 C 10.113281 -140.453125 12.414062 -143.03125 15.78125 -144.75 C 19.15625 -146.46875 23.109375 -147.566406 27.640625 -148.046875 C 32.179688 -148.535156 36.894531 -148.601562 41.78125 -148.25 C 46.664062 -147.90625 51.273438 -147.425781 55.609375 -146.8125 C 59.941406 -146.195312 63.484375 -145.679688 66.234375 -145.265625 C 69.398438 -144.847656 72.425781 -144.226562 75.3125 -143.40625 C 78.207031 -142.582031 80.648438 -141.238281 82.640625 -139.375 C 84.628906 -137.519531 85.832031 -134.738281 86.25 -131.03125 C 86.800781 -127.175781 86.179688 -123.664062 84.390625 -120.5 C 82.609375 -117.34375 79.925781 -115.003906 76.34375 -113.484375 C 73.59375 -112.390625 70.84375 -112.046875 68.09375 -112.453125 C 65.34375 -112.867188 62.59375 -113.351562 59.84375 -113.90625 C 57.09375 -114.457031 54.410156 -114.390625 51.796875 -113.703125 C 50.140625 -113.421875 48.484375 -112.316406 46.828125 -110.390625 C 45.179688 -108.460938 44.253906 -106.328125 44.046875 -103.984375 C 43.847656 -101.648438 44.914062 -99.59375 47.25 -97.8125 C 49.039062 -96.570312 51.585938 -96.019531 54.890625 -96.15625 C 58.191406 -96.289062 61.59375 -96.492188 65.09375 -96.765625 C 68.601562 -97.046875 71.460938 -96.773438 73.671875 -95.953125 C 77.242188 -94.578125 79.75 -92.785156 81.1875 -90.578125 C 82.632812 -88.378906 83.5 -85.492188 83.78125 -81.921875 C 84.320312 -77.648438 83.90625 -73.347656 82.53125 -69.015625 C 81.15625 -64.679688 78.203125 -61.828125 73.671875 -60.453125 C 70.910156 -59.765625 67.945312 -59.800781 64.78125 -60.5625 C 61.625 -61.320312 58.53125 -61.875 55.5 -62.21875 C 52.476562 -62.5625 49.796875 -61.628906 47.453125 -59.421875 C 44.566406 -56.671875 43.363281 -54.226562 43.84375 -52.09375 C 44.320312 -49.96875 45.800781 -48.144531 48.28125 -46.625 C 50.757812 -45.113281 53.476562 -43.945312 56.4375 -43.125 C 59.394531 -42.300781 61.835938 -41.820312 63.765625 -41.6875 C 66.648438 -41.539062 69.8125 -41.570312 73.25 -41.78125 C 76.6875 -41.988281 80.054688 -41.921875 83.359375 -41.578125 C 86.660156 -41.234375 89.550781 -40.097656 92.03125 -38.171875 C 94.363281 -36.523438 95.835938 -34.1875 96.453125 -31.15625 C 97.078125 -28.132812 97.179688 -25.070312 96.765625 -21.96875 C 96.359375 -18.875 95.742188 -16.160156 94.921875 -13.828125 C 92.859375 -8.734375 89.898438 -5.460938 86.046875 -4.015625 C 82.191406 -2.578125 77.648438 -1.71875 72.421875 -1.4375 C 66.097656 -1.164062 59.769531 -0.992188 53.4375 -0.921875 C 47.113281 -0.859375 40.71875 -0.6875 34.25 -0.40625 Z M 34.25 -0.40625 "/></g></g></g><g fill="#ae9279" fill-opacity="1"><g transform="translate(101.25088, 213.380589)"><g><path d="M 15.890625 -1.234375 C 10.523438 -2.753906 6.945312 -5.332031 5.15625 -8.96875 C 3.363281 -12.613281 2.675781 -16.8125 3.09375 -21.5625 C 3.507812 -26.3125 4.367188 -31.054688 5.671875 -35.796875 C 6.984375 -40.546875 8.117188 -44.847656 9.078125 -48.703125 C 11.554688 -58.878906 14.304688 -69.019531 17.328125 -79.125 C 20.359375 -89.238281 23.523438 -99.316406 26.828125 -109.359375 C 29.578125 -117.890625 33.566406 -124.800781 38.796875 -130.09375 C 44.023438 -135.394531 51.453125 -138.179688 61.078125 -138.453125 C 66.441406 -138.585938 70.84375 -137.3125 74.28125 -134.625 C 77.71875 -131.945312 80.503906 -128.441406 82.640625 -124.109375 C 84.773438 -119.773438 86.597656 -115.203125 88.109375 -110.390625 C 89.617188 -105.578125 91.0625 -101.109375 92.4375 -96.984375 L 116.578125 -29.09375 C 118.234375 -24.550781 118.988281 -20.492188 118.84375 -16.921875 C 118.707031 -13.347656 116.644531 -9.910156 112.65625 -6.609375 C 108.664062 -3.441406 104.8125 -1.992188 101.09375 -2.265625 C 97.382812 -2.546875 94.085938 -4.816406 91.203125 -9.078125 C 89.828125 -11.140625 88.691406 -13.753906 87.796875 -16.921875 C 86.898438 -20.085938 85.9375 -23.179688 84.90625 -26.203125 C 83.875 -29.234375 82.394531 -31.503906 80.46875 -33.015625 C 80.195312 -33.285156 78.515625 -33.554688 75.421875 -33.828125 C 72.328125 -34.109375 68.75 -34.351562 64.6875 -34.5625 C 60.632812 -34.769531 56.921875 -34.835938 53.546875 -34.765625 C 50.171875 -34.703125 48.070312 -34.328125 47.25 -33.640625 C 45.320312 -31.984375 43.976562 -29.363281 43.21875 -25.78125 C 42.46875 -22.207031 41.78125 -18.53125 41.15625 -14.75 C 40.539062 -10.96875 39.335938 -7.976562 37.546875 -5.78125 C 35.078125 -2.75 31.773438 -0.957031 27.640625 -0.40625 C 23.515625 0.132812 19.597656 -0.140625 15.890625 -1.234375 Z M 56.75 -62.9375 C 58.675781 -63.207031 60.566406 -63.546875 62.421875 -63.953125 C 64.273438 -64.367188 66.097656 -64.71875 67.890625 -65 C 66.921875 -67.75 65.988281 -70.5 65.09375 -73.25 C 64.207031 -76 63.347656 -78.75 62.515625 -81.5 C 61.554688 -78.476562 60.59375 -75.421875 59.625 -72.328125 C 58.664062 -69.234375 57.707031 -66.101562 56.75 -62.9375 Z M 56.75 -62.9375 "/></g></g></g><g fill="#ae9279" fill-opacity="1"><g transform="translate(223.378646, 213.380589)"><g><path d="M 34.453125 -1.234375 C 31.429688 -1.785156 28.0625 -2.4375 24.34375 -3.1875 C 20.632812 -3.945312 17.128906 -5.082031 13.828125 -6.59375 C 10.523438 -8.113281 7.910156 -10.25 5.984375 -13 C 3.367188 -16.851562 2.40625 -20.359375 3.09375 -23.515625 C 3.78125 -26.679688 5.601562 -29.226562 8.5625 -31.15625 C 11.519531 -33.082031 14.992188 -33.976562 18.984375 -33.84375 C 21.460938 -33.84375 24.210938 -33.289062 27.234375 -32.1875 C 30.265625 -31.082031 33.328125 -30.050781 36.421875 -29.09375 C 39.515625 -28.132812 42.4375 -27.894531 45.1875 -28.375 C 47.9375 -28.851562 50.273438 -30.742188 52.203125 -34.046875 C 54.398438 -37.617188 54.707031 -40.816406 53.125 -43.640625 C 51.550781 -46.460938 49.210938 -48.867188 46.109375 -50.859375 C 43.015625 -52.859375 40.160156 -54.476562 37.546875 -55.71875 C 27.097656 -60.800781 19.429688 -67.570312 14.546875 -76.03125 C 9.660156 -84.5 8.046875 -94.644531 9.703125 -106.46875 C 11.347656 -118.300781 16.09375 -128.515625 23.9375 -137.109375 C 31.78125 -145.710938 41.34375 -151.59375 52.625 -154.75 C 58.125 -156.40625 64.140625 -157.300781 70.671875 -157.4375 C 77.203125 -157.570312 83.015625 -156.0625 88.109375 -152.90625 C 90.992188 -151.113281 93.191406 -148.671875 94.703125 -145.578125 C 96.222656 -142.484375 96.601562 -139.457031 95.84375 -136.5 C 95.09375 -133.539062 92.582031 -131.375 88.3125 -130 C 83.914062 -128.625 79.476562 -126.734375 75 -124.328125 C 70.53125 -121.921875 66.578125 -119.132812 63.140625 -115.96875 C 59.703125 -112.800781 57.222656 -109.328125 55.703125 -105.546875 C 54.191406 -101.765625 54.054688 -97.804688 55.296875 -93.671875 C 56.535156 -89.546875 59.703125 -85.351562 64.796875 -81.09375 C 67.953125 -78.34375 71.179688 -75.832031 74.484375 -73.5625 C 77.785156 -71.289062 80.878906 -68.8125 83.765625 -66.125 C 86.660156 -63.445312 89.003906 -60.046875 90.796875 -55.921875 C 93.128906 -50.828125 94.398438 -45.285156 94.609375 -39.296875 C 94.816406 -33.316406 93.816406 -27.710938 91.609375 -22.484375 C 89.273438 -16.847656 85.972656 -12.378906 81.703125 -9.078125 C 77.441406 -5.773438 72.660156 -3.4375 67.359375 -2.0625 C 62.066406 -0.6875 56.597656 0 50.953125 0 C 45.316406 0 39.816406 -0.410156 34.453125 -1.234375 Z M 34.453125 -1.234375 "/></g></g></g><g fill="#ae9279" fill-opacity="1"><g transform="translate(322.607475, 213.380589)"><g><path d="M 58.609375 -5.78125 C 56.953125 -2.613281 54.265625 -0.617188 50.546875 0.203125 C 46.835938 1.023438 42.988281 0.648438 39 -0.921875 C 35.007812 -2.503906 31.707031 -5.222656 29.09375 -9.078125 C 26.613281 -12.796875 25.097656 -17.300781 24.546875 -22.59375 C 24.003906 -27.882812 23.90625 -33.453125 24.25 -39.296875 C 24.59375 -45.148438 24.96875 -50.828125 25.375 -56.328125 C 25.789062 -61.828125 25.789062 -66.644531 25.375 -70.78125 C 24.6875 -76.28125 22.863281 -81.539062 19.90625 -86.5625 C 16.945312 -91.582031 13.882812 -96.601562 10.71875 -101.625 C 7.5625 -106.644531 5.296875 -111.972656 3.921875 -117.609375 C 2.679688 -122.703125 2.851562 -127.378906 4.4375 -131.640625 C 6.019531 -135.910156 8.769531 -138.867188 12.6875 -140.515625 C 16.613281 -142.171875 21.328125 -141.625 26.828125 -138.875 C 31.640625 -136.53125 35.28125 -133.085938 37.75 -128.546875 C 40.226562 -124.015625 42.257812 -119.164062 43.84375 -114 C 45.425781 -108.84375 47.179688 -104.0625 49.109375 -99.65625 C 50.484375 -102 52.0625 -104.957031 53.84375 -108.53125 C 55.632812 -112.113281 57.597656 -115.828125 59.734375 -119.671875 C 61.867188 -123.523438 64.242188 -126.929688 66.859375 -129.890625 C 69.472656 -132.847656 72.328125 -134.910156 75.421875 -136.078125 C 78.515625 -137.253906 81.914062 -136.945312 85.625 -135.15625 C 88.65625 -133.78125 90.582031 -131.785156 91.40625 -129.171875 C 92.226562 -126.554688 92.398438 -123.664062 91.921875 -120.5 C 91.441406 -117.34375 90.617188 -114.25 89.453125 -111.21875 C 88.285156 -108.1875 87.21875 -105.640625 86.25 -103.578125 C 84.457031 -99.734375 82.390625 -95.988281 80.046875 -92.34375 C 77.710938 -88.695312 75.378906 -85.082031 73.046875 -81.5 C 70.566406 -77.925781 68.8125 -74.9375 67.78125 -72.53125 C 66.75 -70.125 66.195312 -67.578125 66.125 -64.890625 C 66.0625 -62.210938 66.304688 -58.671875 66.859375 -54.265625 C 67.410156 -47.253906 67.753906 -40.753906 67.890625 -34.765625 C 68.023438 -28.785156 67.4375 -23.351562 66.125 -18.46875 C 64.820312 -13.582031 62.316406 -9.351562 58.609375 -5.78125 Z M 58.609375 -5.78125 "/></g></g></g><g fill="#ae9279" fill-opacity="1"><g transform="translate(414.822172, 213.380589)"><g/></g></g><g fill="#ae9279" fill-opacity="1"><g transform="translate(466.396385, 213.380589)"><g><path d="M 25.796875 -0.203125 C 20.566406 0.484375 16.40625 -0.375 13.3125 -2.78125 C 10.21875 -5.1875 7.910156 -8.421875 6.390625 -12.484375 C 4.878906 -16.546875 3.914062 -20.8125 3.5 -25.28125 C 3.09375 -29.75 2.957031 -33.769531 3.09375 -37.34375 C 3.78125 -49.863281 4.125 -62.3125 4.125 -74.6875 C 4.125 -87.070312 4.398438 -99.457031 4.953125 -111.84375 C 5.222656 -116.65625 5.460938 -121.5 5.671875 -126.375 C 5.878906 -131.257812 6.566406 -135.734375 7.734375 -139.796875 C 8.898438 -143.859375 11 -147.191406 14.03125 -149.796875 C 17.0625 -152.410156 21.53125 -153.789062 27.4375 -153.9375 C 34.039062 -154.207031 41.125 -153.859375 48.6875 -152.890625 C 56.257812 -151.929688 63.445312 -150.109375 70.25 -147.421875 C 77.0625 -144.742188 82.84375 -140.859375 87.59375 -135.765625 C 92.34375 -130.679688 95.195312 -124.082031 96.15625 -115.96875 C 96.84375 -110.1875 96.050781 -104.851562 93.78125 -99.96875 C 91.507812 -95.082031 88.34375 -90.75 84.28125 -86.96875 C 80.226562 -83.1875 75.863281 -79.851562 71.1875 -76.96875 C 67.882812 -74.90625 63.894531 -73.1875 59.21875 -71.8125 C 54.539062 -70.4375 50.757812 -68.507812 47.875 -66.03125 C 45.257812 -63.6875 43.46875 -60.65625 42.5 -56.9375 C 41.539062 -53.226562 41.023438 -49.414062 40.953125 -45.5 C 40.890625 -41.582031 40.859375 -38.039062 40.859375 -34.875 C 40.859375 -31.84375 40.820312 -28.4375 40.75 -24.65625 C 40.6875 -20.875 40.238281 -17.226562 39.40625 -13.71875 C 38.582031 -10.207031 37.101562 -7.210938 34.96875 -4.734375 C 32.84375 -2.265625 29.785156 -0.753906 25.796875 -0.203125 Z M 53.03125 -91 C 60.1875 -93.195312 63.898438 -98.21875 64.171875 -106.0625 C 64.441406 -109.632812 63.648438 -113.273438 61.796875 -116.984375 C 59.941406 -120.703125 57.363281 -123.457031 54.0625 -125.25 C 50.625 -127.039062 48.144531 -127.316406 46.625 -126.078125 C 45.113281 -124.835938 44.1875 -122.769531 43.84375 -119.875 C 43.5 -116.988281 43.429688 -113.929688 43.640625 -110.703125 C 43.847656 -107.472656 43.953125 -104.6875 43.953125 -102.34375 C 43.816406 -99.457031 43.710938 -96.945312 43.640625 -94.8125 C 43.566406 -92.675781 44.179688 -91.226562 45.484375 -90.46875 C 46.796875 -89.71875 49.3125 -89.894531 53.03125 -91 Z M 53.03125 -91 "/></g></g></g><g fill="#ae9279" fill-opacity="1"><g transform="translate(562.737045, 213.380589)"><g><path d="M 68.71875 -3.296875 C 62.800781 -1.097656 56.503906 0 49.828125 0 C 43.160156 0 37.003906 -1.238281 31.359375 -3.71875 C 24.347656 -6.875 19.363281 -11.269531 16.40625 -16.90625 C 13.445312 -22.550781 10.9375 -28.816406 8.875 -35.703125 C 6.53125 -43.535156 4.84375 -51.75 3.8125 -60.34375 C 2.78125 -68.945312 2.953125 -77.238281 4.328125 -85.21875 C 5.703125 -93.195312 8.796875 -100.347656 13.609375 -106.671875 C 18.429688 -113.003906 25.453125 -117.820312 34.671875 -121.125 C 44.296875 -124.5625 53.546875 -125.523438 62.421875 -124.015625 C 71.296875 -122.503906 78.894531 -118.6875 85.21875 -112.5625 C 91.550781 -106.4375 95.675781 -98.21875 97.59375 -87.90625 C 98.832031 -80.882812 99.484375 -73.144531 99.546875 -64.6875 C 99.617188 -56.226562 98.691406 -47.867188 96.765625 -39.609375 C 94.847656 -31.359375 91.617188 -23.96875 87.078125 -17.4375 C 82.535156 -10.90625 76.414062 -6.191406 68.71875 -3.296875 Z M 43.328125 -31.15625 C 47.316406 -27.164062 50.992188 -25.273438 54.359375 -25.484375 C 57.734375 -25.691406 60.660156 -27.273438 63.140625 -30.234375 C 65.617188 -33.191406 67.40625 -36.664062 68.5 -40.65625 C 69.1875 -43.257812 69.835938 -46.765625 70.453125 -51.171875 C 71.078125 -55.578125 71.390625 -60.148438 71.390625 -64.890625 C 71.390625 -69.640625 70.769531 -73.972656 69.53125 -77.890625 C 68.300781 -81.816406 66.238281 -84.601562 63.34375 -86.25 C 60.457031 -87.90625 57.296875 -88.078125 53.859375 -86.765625 C 50.421875 -85.460938 47.320312 -83.503906 44.5625 -80.890625 C 41.8125 -78.273438 40.023438 -75.726562 39.203125 -73.25 C 38.378906 -70.632812 37.757812 -67.363281 37.34375 -63.4375 C 36.9375 -59.519531 36.832031 -55.460938 37.03125 -51.265625 C 37.238281 -47.078125 37.820312 -43.191406 38.78125 -39.609375 C 39.75 -36.035156 41.265625 -33.21875 43.328125 -31.15625 Z M 43.328125 -31.15625 "/></g></g></g><g fill="#ae9279" fill-opacity="1"><g transform="translate(665.472891, 213.380589)"><g><path d="M 34.453125 -1.234375 C 31.429688 -1.785156 28.0625 -2.4375 24.34375 -3.1875 C 20.632812 -3.945312 17.128906 -5.082031 13.828125 -6.59375 C 10.523438 -8.113281 7.910156 -10.25 5.984375 -13 C 3.367188 -16.851562 2.40625 -20.359375 3.09375 -23.515625 C 3.78125 -26.679688 5.601562 -29.226562 8.5625 -31.15625 C 11.519531 -33.082031 14.992188 -33.976562 18.984375 -33.84375 C 21.460938 -33.84375 24.210938 -33.289062 27.234375 -32.1875 C 30.265625 -31.082031 33.328125 -30.050781 36.421875 -29.09375 C 39.515625 -28.132812 42.4375 -27.894531 45.1875 -28.375 C 47.9375 -28.851562 50.273438 -30.742188 52.203125 -34.046875 C 54.398438 -37.617188 54.707031 -40.816406 53.125 -43.640625 C 51.550781 -46.460938 49.210938 -48.867188 46.109375 -50.859375 C 43.015625 -52.859375 40.160156 -54.476562 37.546875 -55.71875 C 27.097656 -60.800781 19.429688 -67.570312 14.546875 -76.03125 C 9.660156 -84.5 8.046875 -94.644531 9.703125 -106.46875 C 11.347656 -118.300781 16.09375 -128.515625 23.9375 -137.109375 C 31.78125 -145.710938 41.34375 -151.59375 52.625 -154.75 C 58.125 -156.40625 64.140625 -157.300781 70.671875 -157.4375 C 77.203125 -157.570312 83.015625 -156.0625 88.109375 -152.90625 C 90.992188 -151.113281 93.191406 -148.671875 94.703125 -145.578125 C 96.222656 -142.484375 96.601562 -139.457031 95.84375 -136.5 C 95.09375 -133.539062 92.582031 -131.375 88.3125 -130 C 83.914062 -128.625 79.476562 -126.734375 75 -124.328125 C 70.53125 -121.921875 66.578125 -119.132812 63.140625 -115.96875 C 59.703125 -112.800781 57.222656 -109.328125 55.703125 -105.546875 C 54.191406 -101.765625 54.054688 -97.804688 55.296875 -93.671875 C 56.535156 -89.546875 59.703125 -85.351562 64.796875 -81.09375 C 67.953125 -78.34375 71.179688 -75.832031 74.484375 -73.5625 C 77.785156 -71.289062 80.878906 -68.8125 83.765625 -66.125 C 86.660156 -63.445312 89.003906 -60.046875 90.796875 -55.921875 C 93.128906 -50.828125 94.398438 -45.285156 94.609375 -39.296875 C 94.816406 -33.316406 93.816406 -27.710938 91.609375 -22.484375 C 89.273438 -16.847656 85.972656 -12.378906 81.703125 -9.078125 C 77.441406 -5.773438 72.660156 -3.4375 67.359375 -2.0625 C 62.066406 -0.6875 56.597656 0 50.953125 0 C 45.316406 0 39.816406 -0.410156 34.453125 -1.234375 Z M 34.453125 -1.234375 "/></g></g></g></g></g></svg>